<svg width="153" height="53" viewBox="0 0 153 53" fill="none" xmlns="http://www.w3.org/2000/svg">
<g clip-path="url(#clip0_1_6824)">
<g filter="url(#filter0_d_1_6824)">
<path fill-rule="evenodd" clip-rule="evenodd" d="M37.8696 12.8675C40.1321 15.1985 40.1321 18.9776 37.8696 21.3086C35.6072 23.6395 31.939 23.6395 29.6766 21.3086L25.3802 16.8822L14.2895 28.3086C12.0271 30.6395 8.35895 30.6395 6.0965 28.3086C3.83405 25.9776 3.83405 22.1984 6.0965 19.8675L21.2836 4.22059C23.5461 1.88965 27.2142 1.88965 29.4767 4.22059C29.5646 4.31115 29.649 4.4039 29.7301 4.49867C29.828 4.58824 29.924 4.68135 30.0178 4.778L37.8696 12.8675ZM25.3802 16.8823L26.1589 17.6844C25.6628 17.4659 25.0976 17.4659 24.6015 17.6844L25.3802 16.8823Z" fill="#0ACF83"/>
</g>
<g filter="url(#filter1_d_1_6824)">
<path fill-rule="evenodd" clip-rule="evenodd" d="M21.5804 33.8984C19.318 31.5674 19.318 27.7882 21.5805 25.4572C23.8429 23.1263 27.5111 23.1263 29.7735 25.4572L34.0699 29.8837L45.1606 18.4572C47.4231 16.1262 51.0912 16.1262 53.3537 18.4572C55.6161 20.7881 55.6161 24.5674 53.3537 26.8983L38.1666 42.5451C35.9041 44.8761 32.236 44.8761 29.9735 42.5451C29.8859 42.4549 29.8017 42.3625 29.7209 42.268C29.6226 42.1782 29.5264 42.0848 29.4323 41.9879L21.5804 33.8984ZM34.0699 29.8836L33.2912 29.0813C33.7873 29.2999 34.3525 29.2999 34.8486 29.0813L34.0699 29.8836Z" fill="#1ABCFE"/>
</g>
<path fill-rule="evenodd" clip-rule="evenodd" d="M105.656 25.6V22.2928V21.3077V17.5783H109.857C110.266 17.5783 110.597 17.4493 110.847 17.1912C111.097 16.9099 111.223 16.4993 111.223 15.9599C111.223 15.6315 111.177 15.3265 111.086 15.0451C110.995 14.7402 110.904 14.5174 110.813 14.3766H105.656V11.175C105.656 10.4714 105.486 9.99051 105.144 9.7325C104.803 9.45104 104.268 9.3103 103.539 9.3103C103.175 9.3103 102.822 9.34549 102.48 9.41585C102.162 9.46276 101.911 9.52141 101.729 9.59177V21.3077V22.2928V25.8463C101.729 27.7227 102.241 29.0714 103.266 29.8923C104.29 30.6898 105.69 31.0885 107.466 31.0885C108.741 31.0885 109.686 30.8775 110.301 30.4553C110.915 30.0096 111.223 29.4584 111.223 28.8017C111.223 28.4732 111.154 28.1801 111.018 27.922C110.904 27.6641 110.767 27.4412 110.608 27.2536C110.289 27.3943 109.914 27.5233 109.481 27.6406C109.048 27.7579 108.65 27.8165 108.286 27.8165C107.466 27.8165 106.817 27.6523 106.339 27.324C105.884 26.9721 105.656 26.3974 105.656 25.6ZM78.8175 22.2928C78.8175 24.0989 78.476 25.6586 77.793 26.9721C77.1328 28.2856 76.188 29.3059 74.9586 30.0331C73.7293 30.7368 72.2722 31.0885 70.5875 31.0885C68.9256 31.0885 67.4686 30.7368 66.2165 30.0331C64.9871 29.3059 64.0309 28.2856 63.3479 26.9721C62.6877 25.6586 62.3576 24.0989 62.3576 22.2928C62.3576 20.4868 62.6991 18.9387 63.3821 17.6487C64.0651 16.3352 65.0212 15.3265 66.2506 14.623C67.5027 13.8958 68.9598 13.5322 70.6217 13.5322C72.2608 13.5322 73.6951 13.8958 74.9245 14.623C76.1539 15.3265 77.11 16.3352 77.793 17.6487C78.476 18.9622 78.8175 20.5102 78.8175 22.2928ZM70.5875 16.7691C69.3126 16.7691 68.2996 17.2616 67.5483 18.2467C66.797 19.2084 66.4214 20.5571 66.4214 22.2928C66.4214 24.0519 66.7856 25.4124 67.5141 26.3741C68.2426 27.3357 69.2671 27.8165 70.5875 27.8165C71.908 27.8165 72.9325 27.3357 73.661 26.3741C74.4122 25.3889 74.7879 24.0285 74.7879 22.2928C74.7879 20.5805 74.4122 19.2319 73.661 18.2467C72.9325 17.2616 71.908 16.7691 70.5875 16.7691ZM89.964 31.0885C89.0533 31.0885 88.211 30.9595 87.4369 30.7015C87.0859 30.581 86.7672 30.4553 86.4808 30.3245V36.8938C86.2986 36.9641 86.0482 37.0228 85.7295 37.0696C85.4108 37.14 85.0579 37.1751 84.6709 37.1751C83.9423 37.1751 83.396 37.0345 83.0317 36.753C82.6902 36.4716 82.5195 35.979 82.5195 35.2753V28.8017V27.6054V17.2616C82.5195 16.7222 82.6105 16.2883 82.7927 15.9599C82.9975 15.6315 83.3504 15.3149 83.8513 15.0099C84.4887 14.6112 85.2855 14.2711 86.2417 13.9897C87.1979 13.6847 88.2793 13.5322 89.4859 13.5322C91.125 13.5322 92.5821 13.8372 93.857 14.447C95.1546 15.0334 96.1677 15.9716 96.8962 17.2616C97.6475 18.5517 98.0232 20.2053 98.0232 22.2225C98.0232 24.1927 97.6703 25.8345 96.9645 27.148C96.2816 28.4381 95.3368 29.4233 94.1302 30.1034C92.9236 30.7601 91.5348 31.0885 89.964 31.0885ZM87.1979 27.3591C86.9302 27.2161 86.6798 27.0687 86.4466 26.9168V17.6134C86.8336 17.4023 87.2662 17.2147 87.7443 17.0505C88.2451 16.8629 88.8257 16.7691 89.4859 16.7691C90.3282 16.7691 91.0909 16.9567 91.7739 17.332C92.4569 17.6838 92.9919 18.2585 93.3789 19.0559C93.7887 19.8535 93.9936 20.909 93.9936 22.2225C93.9936 24.1458 93.5724 25.5648 92.73 26.4796C91.9105 27.3709 90.7949 27.8165 89.3834 27.8165C88.5411 27.8165 87.8126 27.6641 87.1979 27.3591ZM119.079 26.7963C118.336 26.1987 117.831 25.3411 117.564 24.2234L127.275 22.7854C127.821 22.715 128.243 22.5273 128.539 22.2225C128.857 21.9175 129.017 21.4484 129.017 20.8151C129.017 19.4078 128.698 18.153 128.061 17.0505C127.446 15.9481 126.569 15.0921 125.431 14.4822C124.315 13.8489 123.018 13.5322 121.538 13.5322C120.468 13.5322 119.444 13.7199 118.465 14.0952C117.508 14.447 116.666 14.9864 115.938 15.7136C115.209 16.4173 114.629 17.3086 114.196 18.3875C113.786 19.4665 113.581 20.7213 113.581 22.1521C113.581 24.0989 113.957 25.7408 114.708 27.0776C115.459 28.4146 116.495 29.4233 117.816 30.1034C119.159 30.7601 120.718 31.0885 122.494 31.0885C123.61 31.0885 124.6 30.9712 125.465 30.7368C126.353 30.5022 127.047 30.1738 127.548 29.7516C128.072 29.3059 128.334 28.8017 128.334 28.2388C128.334 27.8634 128.231 27.5351 128.026 27.2536C127.844 26.9486 127.605 26.6907 127.309 26.4796C126.831 26.8314 126.182 27.1597 125.363 27.4647C124.566 27.7696 123.689 27.922 122.733 27.922C121.253 27.922 120.035 27.5468 119.079 26.7963ZM125.294 20.1467L117.313 21.3472C117.382 19.8802 117.788 18.7413 118.533 17.9301C119.33 17.0622 120.331 16.6284 121.538 16.6284C122.699 16.6284 123.598 16.9802 124.236 17.6838C124.873 18.364 125.226 19.185 125.294 20.1467ZM136.504 21.5539V17.8245C137.005 17.5431 137.619 17.3086 138.348 17.1209C139.076 16.9099 139.873 16.8043 140.738 16.8043C141.103 16.8043 141.456 16.8278 141.797 16.8746C142.053 16.9077 142.276 16.9407 142.465 16.9737C142.431 17.1609 142.414 17.3625 142.414 17.5783V21.3077V22.7853V28.9423C142.414 29.6226 142.585 30.1034 142.926 30.3849C143.29 30.6663 143.837 30.807 144.565 30.807C144.952 30.807 145.305 30.7719 145.624 30.7015C145.943 30.6546 146.193 30.596 146.375 30.5257V22.7853V21.5539V17.8245C146.876 17.5431 147.491 17.3086 148.219 17.1209C148.948 16.9098 149.744 16.8043 150.61 16.8043C150.974 16.8043 151.327 16.8278 151.668 16.8746C152.032 16.9215 152.328 16.9685 152.556 17.0154C152.693 16.8278 152.795 16.6049 152.863 16.3469C152.955 16.0655 153 15.7722 153 15.4673C153 14.1773 151.964 13.5322 149.892 13.5322C148.686 13.5322 147.559 13.673 146.512 13.9544C145.464 14.2359 144.599 14.5877 143.916 15.0099C143.601 15.2313 143.336 15.462 143.12 15.702C143.126 15.6245 143.129 15.5463 143.129 15.4673C143.129 14.1773 142.093 13.5322 140.021 13.5322C138.815 13.5322 137.688 13.673 136.64 13.9544C135.593 14.2359 134.728 14.5877 134.045 15.0099C133.544 15.3618 133.169 15.737 132.918 16.1358C132.668 16.511 132.543 16.9919 132.543 17.5783V21.3077V22.7854V28.9424C132.543 29.6226 132.713 30.1034 133.055 30.3849C133.419 30.6664 133.965 30.8071 134.694 30.8071C135.081 30.8071 135.434 30.7719 135.753 30.7015C136.071 30.6546 136.322 30.596 136.504 30.5257V22.7854V21.5539Z" fill="url(#paint0_linear_1_6824)"/>
</g>
<defs>
<filter id="filter0_d_1_6824" x="0.399658" y="2.47238" width="43.1668" height="35.5844" filterUnits="userSpaceOnUse" color-interpolation-filters="sRGB">
<feFlood flood-opacity="0" result="BackgroundImageFix"/>
<feColorMatrix in="SourceAlpha" type="matrix" values="0 0 0 0 0 0 0 0 0 0 0 0 0 0 0 0 0 0 127 0" result="hardAlpha"/>
<feOffset dy="4"/>
<feGaussianBlur stdDeviation="2"/>
<feComposite in2="hardAlpha" operator="out"/>
<feColorMatrix type="matrix" values="0 0 0 0 0 0 0 0 0 0 0 0 0 0 0 0 0 0 0.25 0"/>
<feBlend mode="normal" in2="BackgroundImageFix" result="effect1_dropShadow_1_6824"/>
<feBlend mode="normal" in="SourceGraphic" in2="effect1_dropShadow_1_6824" result="shape"/>
</filter>
<filter id="filter1_d_1_6824" x="15.8836" y="16.709" width="43.1669" height="35.5844" filterUnits="userSpaceOnUse" color-interpolation-filters="sRGB">
<feFlood flood-opacity="0" result="BackgroundImageFix"/>
<feColorMatrix in="SourceAlpha" type="matrix" values="0 0 0 0 0 0 0 0 0 0 0 0 0 0 0 0 0 0 127 0" result="hardAlpha"/>
<feOffset dy="4"/>
<feGaussianBlur stdDeviation="2"/>
<feComposite in2="hardAlpha" operator="out"/>
<feColorMatrix type="matrix" values="0 0 0 0 0 0 0 0 0 0 0 0 0 0 0 0 0 0 0.25 0"/>
<feBlend mode="normal" in2="BackgroundImageFix" result="effect1_dropShadow_1_6824"/>
<feBlend mode="normal" in="SourceGraphic" in2="effect1_dropShadow_1_6824" result="shape"/>
</filter>
<linearGradient id="paint0_linear_1_6824" x1="107.679" y1="9.3103" x2="107.679" y2="37.1751" gradientUnits="userSpaceOnUse">
<stop offset="0.317708" stop-color="#0ACF83"/>
<stop offset="0.619792" stop-color="#1ABCFE"/>
</linearGradient>
<clipPath id="clip0_1_6824">
<rect width="153" height="52.5439" fill="white"/>
</clipPath>
</defs>
</svg>
